<svg
  xmlns="http://www.w3.org/2000/svg"
  viewBox="0 0 24 24"
  width="52"
  height="52"
  fill="currentColor"
>
  <path
    d="M12 0C5.37 0 0 5.37 0 12c0 5.3 3.44 9.8 8.2 11.39.6.11.82-.26.82-.58 0-.29-.01-1.06-.02-2.08-3.34.73-4.04-1.61-4.04-1.61-.55-1.4-1.34-1.77-1.34-1.77-1.09-.74.08-.73.08-.73 1.2.08 1.83 1.23 1.83 1.23 1.07 1.83 2.8 1.3 3.48.99.11-.78.42-1.3.76-1.6-2.67-.3-5.47-1.34-5.47-5.95 0-1.31.47-2.38 1.23-3.22-.12-.3-.53-1.52.12-3.17 0 0 1-.32 3.3 1.23a11.49 11.49 0 0 1 3-.4c1.02.01 2.04.14 3 .4 2.3-1.55 3.3-1.23 3.3-1.23.65 1.65.24 2.87.12 3.17.76.84 1.23 1.91 1.23 3.22 0 4.61-2.8 5.65-5.47 5.95.43.37.81 1.1.81 2.22 0 1.61-.01 2.91-.01 3.31 0 .32.22.7.83.58C20.57 21.8 24 17.3 24 12 24 5.37 18.63 0 12 0z"
  />
</svg>