<svg xmlns="http://www.w3.org/2000/svg" xmlns:xlink="http://www.w3.org/1999/xlink" width="500" zoomAndPan="magnify" viewBox="0 0 375 374.999991" height="500" preserveAspectRatio="xMidYMid meet" version="1.0"><defs><g/></defs><g fill="#cb6ce6" fill-opacity="1"><g transform="translate(91.132835, 301.239004)"><g><path d="M 25.421875 0 L 25.421875 -195.59375 L 103.953125 -195.59375 C 124.191406 -195.59375 139.460938 -190.929688 149.765625 -181.609375 C 160.066406 -172.285156 165.21875 -159.421875 165.21875 -143.015625 C 165.21875 -131.148438 162.207031 -121.425781 156.1875 -113.84375 C 150.164062 -106.269531 141.179688 -100.472656 129.234375 -96.453125 L 129.234375 -93.640625 C 135.390625 -90.972656 140.359375 -87.003906 144.140625 -81.734375 C 147.929688 -76.472656 151.523438 -68.671875 154.921875 -58.328125 L 174.453125 0 L 134.71875 0 L 115.59375 -58.46875 C 113.625 -64.351562 111.410156 -68.921875 108.953125 -72.171875 C 106.503906 -75.429688 103.382812 -77.796875 99.59375 -79.265625 C 95.8125 -80.734375 90.882812 -81.46875 84.8125 -81.46875 L 64.078125 -81.46875 L 64.078125 0 Z M 99.265625 -112.109375 C 117.992188 -112.109375 127.359375 -120.847656 127.359375 -138.328125 C 127.359375 -156.078125 117.992188 -164.953125 99.265625 -164.953125 L 64.078125 -164.953125 L 64.078125 -112.109375 Z M 99.265625 -112.109375 "/></g></g></g></svg>