<svg xmlns="http://www.w3.org/2000/svg" xmlns:xlink="http://www.w3.org/1999/xlink" width="500" zoomAndPan="magnify" viewBox="0 0 375 374.999991" height="500" preserveAspectRatio="xMidYMid meet" version="1.0"><defs><g/><clipPath id="5a4fbd72f6"><path d="M 156 89.667969 L 237 89.667969 L 237 199.917969 L 156 199.917969 Z M 156 89.667969 " clip-rule="nonzero"/></clipPath><clipPath id="f4286bab12"><path d="M 122.359375 89.667969 L 175 89.667969 L 175 118 L 122.359375 118 Z M 122.359375 89.667969 " clip-rule="nonzero"/></clipPath><clipPath id="045bd93ff4"><path d="M 156 103 L 224 103 L 224 199.917969 L 156 199.917969 Z M 156 103 " clip-rule="nonzero"/></clipPath><clipPath id="a41dc372e7"><path d="M 122.359375 89.667969 L 175 89.667969 L 175 118 L 122.359375 118 Z M 122.359375 89.667969 " clip-rule="nonzero"/></clipPath></defs><rect x="-37.5" width="450" fill="#ffffff" y="-37.499999" height="449.999989" fill-opacity="1"/><rect x="-37.5" width="450" fill="#0a0c06" y="-37.499999" height="449.999989" fill-opacity="1"/><g clip-path="url(#5a4fbd72f6)"><path fill="#e8e5de" d="M 207.285156 166.984375 L 229.03125 199.589844 L 195.664062 199.589844 L 174.71875 168.183594 L 156.40625 140.703125 C 156.40625 140.703125 197.609375 140.703125 197.625 140.703125 C 204.035156 140.703125 209.40625 135.324219 209.40625 128.925781 C 209.40625 122.429688 204.125 117.148438 197.625 117.148438 L 187.714844 117.148438 L 169.402344 89.667969 L 197.625 89.667969 C 219.316406 89.667969 236.882812 107.234375 236.882812 128.925781 C 236.882812 139.761719 232.488281 149.574219 225.382812 156.679688 C 220.5 161.5625 213.972656 165.28125 207.285156 166.984375 " fill-opacity="1" fill-rule="evenodd"/></g><g clip-path="url(#f4286bab12)"><path fill="#cb6ce6" d="M 174.066406 117.148438 L 140.695312 117.148438 L 122.375 89.667969 L 155.746094 89.667969 Z M 174.066406 117.148438 " fill-opacity="1" fill-rule="evenodd"/></g><g clip-path="url(#045bd93ff4)"><path fill="#e8e5de" d="M 197.179688 155.316406 L 184.480469 155.316406 L 193.03125 168.167969 L 213.976562 199.589844 L 195.65625 199.589844 L 182.464844 179.773438 L 156.417969 140.6875 C 156.417969 140.6875 197.609375 140.6875 197.640625 140.6875 C 204.019531 140.6875 209.394531 135.316406 209.394531 128.933594 C 209.394531 122.429688 204.113281 117.148438 197.640625 117.148438 L 187.722656 117.148438 L 178.5625 103.40625 L 197.179688 103.40625 C 211.53125 103.40625 223.136719 115.039062 223.136719 129.363281 C 223.136719 143.679688 211.53125 155.316406 197.179688 155.316406 " fill-opacity="1" fill-rule="evenodd"/></g><g clip-path="url(#a41dc372e7)"><path fill="#cb6ce6" d="M 122.375 89.667969 L 140.695312 117.148438 L 174.066406 117.148438 L 164.90625 103.40625 L 151.003906 103.40625 C 140.3125 103.40625 130.152344 98.738281 123.195312 90.621094 Z M 122.375 89.667969 " fill-opacity="1" fill-rule="evenodd"/></g><g fill="#e8e5de" fill-opacity="1"><g transform="translate(90.510057, 256.931614)"><g><path d="M 2.6875 0 L 2.6875 -34.265625 L 19.78125 -34.265625 C 22.5625 -34.265625 24.984375 -33.789062 27.046875 -32.84375 C 29.109375 -31.90625 30.707031 -30.578125 31.84375 -28.859375 C 32.976562 -27.148438 33.546875 -25.144531 33.546875 -22.84375 C 33.546875 -20.0625 32.722656 -17.757812 31.078125 -15.9375 C 29.429688 -14.113281 27.3125 -12.992188 24.71875 -12.578125 L 24 -12.484375 L 34.3125 0 L 24.09375 0 L 15.21875 -11.8125 L 12 -11.8125 L 12 0 Z M 12 -17.71875 L 18 -17.71875 C 19.820312 -17.71875 21.320312 -18.15625 22.5 -19.03125 C 23.6875 -19.914062 24.28125 -21.140625 24.28125 -22.703125 C 24.28125 -24.304688 23.6875 -25.539062 22.5 -26.40625 C 21.320312 -27.269531 19.820312 -27.703125 18 -27.703125 L 12 -27.703125 Z M 12 -17.71875 "/></g></g></g><g fill="#e8e5de" fill-opacity="1"><g transform="translate(130.349997, 256.931614)"><g><path d="M 2.6875 0 L 2.6875 -34.265625 L 28.9375 -34.265625 L 28.9375 -27.03125 L 11.609375 -27.03125 L 11.609375 -20.296875 L 28.03125 -20.296875 L 28.03125 -14.40625 L 11.609375 -14.40625 L 11.609375 -7.25 L 29.421875 -7.25 L 29.421875 0 Z M 2.6875 0 "/></g></g></g><g fill="#e8e5de" fill-opacity="1"><g transform="translate(165.773947, 256.931614)"><g><path d="M 20.203125 0.71875 C 17.484375 0.71875 14.988281 0.285156 12.71875 -0.578125 C 10.445312 -1.441406 8.46875 -2.664062 6.78125 -4.25 C 5.101562 -5.832031 3.804688 -7.710938 2.890625 -9.890625 C 1.984375 -12.066406 1.53125 -14.484375 1.53125 -17.140625 C 1.53125 -20.691406 2.332031 -23.8125 3.9375 -26.5 C 5.539062 -29.1875 7.75 -31.269531 10.5625 -32.75 C 13.375 -34.238281 16.585938 -34.984375 20.203125 -34.984375 C 23.304688 -34.984375 26.113281 -34.40625 28.625 -33.25 C 31.144531 -32.101562 33.203125 -30.515625 34.796875 -28.484375 C 36.398438 -26.453125 37.363281 -24.109375 37.6875 -21.453125 L 29.1875 -20.546875 C 28.925781 -21.859375 28.367188 -23.03125 27.515625 -24.0625 C 26.671875 -25.101562 25.640625 -25.921875 24.421875 -26.515625 C 23.210938 -27.109375 21.90625 -27.40625 20.5 -27.40625 C 18.570312 -27.40625 16.878906 -26.976562 15.421875 -26.125 C 13.972656 -25.28125 12.835938 -24.085938 12.015625 -22.546875 C 11.203125 -21.015625 10.796875 -19.210938 10.796875 -17.140625 C 10.796875 -15.085938 11.203125 -13.289062 12.015625 -11.75 C 12.835938 -10.21875 13.984375 -9.019531 15.453125 -8.15625 C 16.921875 -7.289062 18.601562 -6.859375 20.5 -6.859375 C 21.90625 -6.859375 23.210938 -7.15625 24.421875 -7.75 C 25.640625 -8.34375 26.671875 -9.148438 27.515625 -10.171875 C 28.367188 -11.203125 28.925781 -12.351562 29.1875 -13.625 L 37.78125 -12.671875 C 37.519531 -10.046875 36.597656 -7.722656 35.015625 -5.703125 C 33.429688 -3.691406 31.359375 -2.117188 28.796875 -0.984375 C 26.234375 0.148438 23.367188 0.71875 20.203125 0.71875 Z M 20.203125 0.71875 "/></g></g></g><g fill="#e8e5de" fill-opacity="1"><g transform="translate(209.741876, 256.931614)"><g><path d="M 0.390625 0 L 11.328125 -34.265625 L 25.0625 -34.265625 L 36 0 L 26.359375 0 L 24.53125 -5.71875 L 11.859375 -5.71875 L 10.03125 0 Z M 13.625 -12.28125 L 22.75 -12.28125 L 18.390625 -26.40625 L 17.953125 -26.40625 Z M 13.625 -12.28125 "/></g></g></g><g fill="#e8e5de" fill-opacity="1"><g transform="translate(250.733809, 256.931614)"><g><path d="M 2.734375 0 L 2.734375 -34.265625 L 18.28125 -34.265625 C 21.320312 -34.265625 23.914062 -33.757812 26.0625 -32.75 C 28.207031 -31.75 29.847656 -30.34375 30.984375 -28.53125 C 32.117188 -26.726562 32.6875 -24.609375 32.6875 -22.171875 C 32.6875 -19.773438 32.109375 -17.671875 30.953125 -15.859375 C 29.804688 -14.054688 28.148438 -12.640625 25.984375 -11.609375 C 23.828125 -10.585938 21.210938 -10.078125 18.140625 -10.078125 L 11.953125 -10.078125 L 11.953125 0 Z M 11.953125 -16.65625 L 17.09375 -16.65625 C 19.070312 -16.65625 20.613281 -17.164062 21.71875 -18.1875 C 22.820312 -19.21875 23.375 -20.546875 23.375 -22.171875 C 23.375 -23.804688 22.820312 -25.132812 21.71875 -26.15625 C 20.613281 -27.1875 19.070312 -27.703125 17.09375 -27.703125 L 11.953125 -27.703125 Z M 11.953125 -16.65625 "/></g></g></g></svg>